<svg width="568" height="236" viewBox="0 0 568 236" fill="none" xmlns="http://www.w3.org/2000/svg">
<path d="M558.378 -28.4177C536.842 8.39745 474.896 9.52458 489.721 103.405C506.37 208.622 409.952 253.846 344.086 227.783C278.22 201.72 282.845 105.085 157.681 102.113C29.7167 99.0773 2.79579 -22.4644 2.79579 -22.4644" stroke="#FB6542" stroke-width="2" stroke-miterlimit="10"/>
<path d="M461.944 -56.7227C461.944 -10.0792 425.764 23.48 438.754 103.285C451.745 183.09 393.359 192.422 370.097 183.09C321.856 163.731 312.578 60.2298 234.661 53.4995C176.086 48.4677 97.3469 88.5058 55.6285 -2.3569" stroke="#FB6542" stroke-width="2" stroke-miterlimit="10"/>
<path d="M422.978 -20.9554C431.126 -7.87974 409.29 39.858 378.459 46.3921C354.112 51.5522 313.523 -9.78048 230.042 27.421C200.347 40.6647 80.6939 44.5853 104.814 -28.4354" stroke="#FB6542" stroke-width="2" stroke-miterlimit="10"/>
<path d="M381.241 154.797C395.071 154.797 406.283 138.291 406.283 117.93C406.283 97.5685 395.071 81.0625 381.241 81.0625C367.411 81.0625 356.199 97.5685 356.199 117.93C356.199 138.291 367.411 154.797 381.241 154.797Z" stroke="#FB6542" stroke-width="2" stroke-miterlimit="10"/>
</svg>
